<?xml version="1.0" encoding="utf-8"?>
<svg version="1.1" xmlns:xlink="http://www.w3.org/1999/xlink" width="253px" height="50px" xmlns="http://www.w3.org/2000/svg">
  <g transform="matrix(1 0 0 1 -189 -158 )">
    <path d="M 422.31059161579 158.5  C 422.31059161579 158.5  425.751873201949 158.840047587565  425.751873201949 158.840047587565  C 425.751873201949 158.840047587565  441.462634224525 183  441.462634224525 183  C 441.462634224525 183  425.751873201949 207.159952412435  425.751873201949 207.159952412435  C 425.751873201949 207.159952412435  422.31059161579 207.5  422.31059161579 207.5  C 422.31059161579 207.5  194 207.5  194 207.5  C 191.48 207.5  189.5 205.52  189.5 203  C 189.5 203  189.5 163  189.5 163  C 189.5 160.48  191.48 158.5  194 158.5  C 194 158.5  422.31059161579 158.5  422.31059161579 158.5  Z " fill-rule="nonzero" fill="#0079fe" stroke="none" />
    <path d="M 422.31059161579 158.5  C 422.31059161579 158.5  425.751873201949 158.840047587565  425.751873201949 158.840047587565  C 425.751873201949 158.840047587565  441.462634224525 183  441.462634224525 183  C 441.462634224525 183  425.751873201949 207.159952412435  425.751873201949 207.159952412435  C 425.751873201949 207.159952412435  422.31059161579 207.5  422.31059161579 207.5  C 422.31059161579 207.5  194 207.5  194 207.5  C 191.48 207.5  189.5 205.52  189.5 203  C 189.5 203  189.5 163  189.5 163  C 189.5 160.48  191.48 158.5  194 158.5  C 194 158.5  422.31059161579 158.5  422.31059161579 158.5  Z " stroke-width="1" stroke="#0079fe" fill="none" />
  </g>
</svg>