<?xml version="1.0" encoding="utf-8"?>
<svg version="1.1" xmlns:xlink="http://www.w3.org/1999/xlink" width="253px" height="50px" xmlns="http://www.w3.org/2000/svg">
  <g transform="matrix(1 0 0 1 -427 -158 )">
    <path d="M 660.31059161579 158.5  C 660.31059161579 158.5  663.751873201949 158.840047587565  663.751873201949 158.840047587565  C 663.751873201949 158.840047587565  679.462634224525 183  679.462634224525 183  C 679.462634224525 183  663.751873201949 207.159952412435  663.751873201949 207.159952412435  C 663.751873201949 207.159952412435  660.31059161579 207.5  660.31059161579 207.5  C 660.31059161579 207.5  432 207.5  432 207.5  C 429.48 207.5  427.5 205.52  427.5 203  C 427.5 203  427.5 163  427.5 163  C 427.5 160.48  429.48 158.5  432 158.5  C 432 158.5  660.31059161579 158.5  660.31059161579 158.5  Z " fill-rule="nonzero" fill="#ffffff" stroke="none" />
    <path d="M 660.31059161579 158.5  C 660.31059161579 158.5  663.751873201949 158.840047587565  663.751873201949 158.840047587565  C 663.751873201949 158.840047587565  679.462634224525 183  679.462634224525 183  C 679.462634224525 183  663.751873201949 207.159952412435  663.751873201949 207.159952412435  C 663.751873201949 207.159952412435  660.31059161579 207.5  660.31059161579 207.5  C 660.31059161579 207.5  432 207.5  432 207.5  C 429.48 207.5  427.5 205.52  427.5 203  C 427.5 203  427.5 163  427.5 163  C 427.5 160.48  429.48 158.5  432 158.5  C 432 158.5  660.31059161579 158.5  660.31059161579 158.5  Z " stroke-width="1" stroke="#d7d7d7" fill="none" />
  </g>
</svg>